<?xml version="1.0" standalone="no"?>

<svg version="1.0" xmlns="http://www.w3.org/2000/svg"
 width="40" height="40" viewBox="0 0 64.000000 64.000000"
 preserveAspectRatio="xMidYMid meet">

<g transform="translate(0.000000,64.000000) scale(0.100000,-0.100000)"
fill="currentcolor" stroke="currentcolor" stroke-width="10">
<path d="M182 600 c-13 -6 -32 -29 -44 -57 -17 -39 -20 -60 -15 -125 5 -70 3
-78 -12 -78 -25 0 -101 -57 -101 -75 0 -23 19 -18 57 15 37 33 68 39 77 15 3
-8 13 -15 22 -15 11 0 14 5 9 18 -15 37 -28 150 -21 193 4 26 16 56 28 69 18
19 27 21 62 15 23 -4 57 -8 76 -8 19 0 53 4 76 8 35 6 44 4 62 -15 12 -13 24
-43 28 -69 7 -43 -6 -156 -21 -193 -5 -13 -2 -18 9 -18 9 0 19 7 22 15 9 24
40 18 77 -15 38 -33 57 -38 57 -15 0 18 -76 75 -101 75 -15 0 -17 8 -12 78 5
65 2 86 -15 125 -27 61 -56 73 -132 58 -38 -7 -67 -8 -90 -1 -42 12 -67 12
-98 0z"/>
<path d="M286 414 c-9 -8 -16 -26 -16 -40 0 -19 -5 -24 -25 -24 -16 0 -25 -6
-25 -15 0 -9 9 -15 25 -15 20 0 25 -5 25 -25 0 -20 -5 -25 -25 -25 -16 0 -25
-6 -25 -15 0 -9 9 -15 25 -15 20 0 25 -5 25 -25 0 -20 -5 -25 -25 -25 -16 0
-25 -6 -25 -15 0 -9 9 -15 25 -15 20 0 25 -5 25 -24 0 -29 24 -56 50 -56 26 0
50 27 50 56 0 19 5 24 25 24 16 0 25 6 25 15 0 9 -9 15 -25 15 -20 0 -25 5
-25 25 0 20 5 25 25 25 16 0 25 6 25 15 0 9 -9 15 -25 15 -20 0 -25 5 -25 25
0 20 5 25 25 25 16 0 25 6 25 15 0 9 -9 15 -25 15 -20 0 -25 5 -25 24 0 29
-24 56 -50 56 -10 0 -26 -7 -34 -16z m49 -160 c0 -117 -2 -139 -15 -139 -12 0
-15 22 -18 129 -3 137 0 160 21 153 9 -3 12 -40 12 -143z"/>
</g>
</svg>
