<?xml version="1.0" standalone="no"?>
<svg version="1.0" xmlns="http://www.w3.org/2000/svg"
 width="35" height="35" viewBox="0 0 100.000000 100.000000"
 preserveAspectRatio="xMidYMid meet">

<g transform="translate(0.000000,100.000000) scale(0.100000,-0.100000)"
fill="#fff" stroke="white" stroke-width="10">
<path d="M759 986 c-92 -33 -159 -116 -159 -198 0 -47 -1 -48 -52 -78 -29 -16
-96 -44 -148 -61 -117 -38 -130 -45 -207 -107 -59 -47 -79 -57 -147 -78 -16
-5 -34 -17 -40 -27 -9 -15 -7 -22 12 -37 58 -48 133 -30 230 54 36 31 72 51
115 64 86 26 186 46 194 39 7 -8 -13 -108 -39 -194 -13 -43 -33 -79 -64 -115
-84 -97 -102 -172 -54 -230 15 -19 22 -21 37 -12 10 6 22 24 27 40 21 69 33
91 79 148 61 76 68 90 106 206 17 52 45 119 61 148 30 51 31 52 78 52 93 0
192 94 208 196 7 51 -1 93 -21 100 -22 9 -88 -42 -99 -78 -12 -37 -45 -57 -80
-51 -51 10 -35 90 22 109 30 9 82 69 82 93 0 30 -79 40 -141 17z m81 -45 c-5
-11 -26 -25 -45 -31 -44 -15 -65 -45 -69 -101 -1 -24 -8 -53 -16 -65 -11 -18
-10 -25 10 -52 l23 -31 -27 -32 c-38 -44 -79 -130 -106 -219 -28 -96 -48 -134
-100 -193 -24 -26 -53 -74 -66 -105 -21 -51 -23 -54 -29 -30 -8 32 14 79 67
136 50 55 72 104 98 222 11 52 30 124 42 160 16 46 22 90 23 150 0 48 6 94 12
106 29 50 113 103 166 104 24 0 26 -2 17 -19z m116 -145 c-13 -68 -99 -156
-152 -156 -16 0 -24 8 -29 33 -13 51 -12 52 31 54 58 2 82 18 104 68 29 67 58
67 46 1z m-361 -146 c-8 -37 -16 -41 -150 -70 -123 -26 -171 -47 -227 -98 -57
-53 -104 -75 -136 -67 -24 6 -21 8 30 29 31 13 79 42 105 66 59 52 95 70 203
104 47 15 105 37 130 50 25 13 47 23 48 21 2 -2 1 -18 -3 -35z"/>
<path d="M667 693 c-4 -3 -7 -12 -7 -20 0 -15 26 -18 34 -4 7 11 -18 33 -27
24z"/>
</g>
</svg>
