<?xml version="1.0" standalone="no"?>
<svg version="1.0" xmlns="http://www.w3.org/2000/svg"
 width="35" height="35" viewBox="0 0 100.000000 100.000000"
 preserveAspectRatio="xMidYMid meet">

<g transform="translate(0.000000,100.000000) scale(0.100000,-0.100000)"
fill="currentColor" stroke="currentColor" stroke-width="30">
<path d="M286 895 c-56 -20 -107 -65 -136 -121 -20 -38 -25 -63 -25 -120 0
-67 4 -79 48 -164 33 -63 56 -126 73 -197 38 -160 64 -203 125 -203 50 0 75
32 85 108 29 249 58 249 88 0 10 -76 35 -108 85 -108 61 0 87 43 125 203 17
71 40 134 72 194 55 107 64 163 40 247 -22 73 -82 137 -152 159 -64 21 -369
22 -428 2z m223 -44 c20 -11 43 -27 50 -35 15 -18 51 -22 51 -6 0 6 -12 22
-26 35 l-27 25 59 0 c72 0 128 -24 171 -73 28 -33 53 -90 53 -124 0 -10 -29
-13 -109 -13 l-110 0 -3 38 -3 37 -115 0 -115 0 -3 -37 -3 -38 -110 0 c-119 0
-116 -2 -98 63 13 49 63 105 114 128 56 26 173 26 224 0z m71 -211 l0 -60 -80
0 -80 0 0 60 0 60 80 0 80 0 0 -60z m-198 -57 l3 -38 115 0 115 0 3 38 3 37
109 0 109 0 -9 -29 c-4 -16 -24 -58 -44 -93 -22 -39 -49 -115 -71 -198 -37
-140 -53 -170 -90 -170 -29 0 -31 8 -50 136 -9 58 -21 116 -27 129 -20 45 -76
45 -96 0 -6 -13 -18 -71 -27 -129 -19 -128 -21 -136 -50 -136 -37 0 -53 30
-90 170 -22 83 -49 159 -71 198 -20 35 -40 77 -44 93 l-9 29 109 0 109 0 3
-37z"/>
<path d="M484 649 c-10 -17 13 -36 27 -22 12 12 4 33 -11 33 -5 0 -12 -5 -16
-11z"/>
</g>
</svg>
