<?xml version="1.0" standalone="no"?>
<svg version="1.0" xmlns="http://www.w3.org/2000/svg"
 width="35" height="35" viewBox="0 0 48.000000 48.000000"
 preserveAspectRatio="xMidYMid meet">

<g transform="translate(0.000000,48.000000) scale(0.100000,-0.100000)"
fill="#fff" stroke="none">
<path d="M292 417 c-43 -44 -51 -64 -30 -85 15 -15 -17 -52 -46 -52 -25 0
-176 -147 -176 -171 0 -8 18 -33 40 -54 l40 -39 80 79 c44 44 80 88 80 98 0
11 32 52 70 91 77 80 91 119 47 135 -13 5 -29 16 -36 25 -19 22 -22 21 -69
-27z m64 2 c9 -14 -51 -74 -65 -65 -17 11 -13 26 5 19 11 -4 15 -1 12 13 -2
14 2 18 16 16 14 -3 17 1 13 12 -7 18 8 22 19 5z m44 -27 c0 -14 -126 -133
-133 -125 -4 4 21 35 55 70 59 60 78 73 78 55z m-142 -161 c3 -18 -10 -37 -49
-77 l-53 -54 -23 22 c-30 28 -43 15 -14 -16 33 -35 7 -46 -27 -12 l-27 26 70
70 c55 55 75 70 95 68 18 -2 26 -10 28 -27z"/>
<path d="M204 229 c-10 -17 13 -36 27 -22 12 12 4 33 -11 33 -5 0 -12 -5 -16
-11z"/>
</g>
</svg>
