<?xml version="1.0" standalone="no"?>
<!DOCTYPE svg PUBLIC "-//W3C//DTD SVG 20010904//EN">
<svg version="1.0" xmlns="http://www.w3.org/2000/svg"
 width="949.000000pt" height="382.000000pt" viewBox="0 0 949.000000 382.000000"
 preserveAspectRatio="xMidYMid meet">
<metadata>
Created by potrace 1.16, written by Peter Selinger 2001-2019
</metadata>
<g transform="translate(0.000000,382.000000) scale(0.100000,-0.100000)"
fill="currentColor" stroke="currentColor">
<path d="M656 3665 c-225 -57 -409 -258 -476 -520 -45 -177 -45 -424 1 -663
27 -141 57 -239 140 -464 92 -250 104 -302 129 -548 41 -410 96 -636 220 -897
101 -212 222 -373 312 -416 68 -32 158 -19 210 30 38 37 45 67 58 243 40 573
114 865 254 1005 49 49 59 55 96 55 72 0 120 -38 185 -145 90 -150 149 -441
180 -882 10 -146 19 -222 29 -242 26 -49 72 -75 141 -79 78 -5 120 15 196 94
77 82 131 166 199 307 140 293 197 513 240 932 27 256 36 295 132 558 138 381
174 568 165 857 -6 194 -24 278 -92 415 -92 188 -237 314 -416 360 -51 14 -94
16 -209 13 -176 -6 -261 -26 -436 -104 -145 -64 -217 -84 -299 -84 -84 1 -130
13 -275 75 -213 91 -279 107 -465 111 -119 3 -175 0 -219 -11z m273 -216 c114
-18 220 -60 482 -190 142 -70 297 -141 345 -158 199 -68 451 -82 486 -28 4 7
8 27 8 44 0 40 -25 58 -95 68 -115 15 -317 79 -317 100 -1 26 348 148 475 166
234 33 415 -92 503 -346 27 -76 28 -89 28 -270 1 -260 -19 -354 -147 -711 -85
-234 -113 -350 -137 -569 -35 -313 -78 -530 -145 -730 -57 -167 -200 -431
-230 -422 -5 2 -13 55 -17 118 -24 401 -88 711 -186 905 -61 121 -152 222
-242 270 -55 29 -210 27 -270 -4 -136 -71 -259 -263 -325 -506 -46 -170 -93
-515 -96 -696 0 -30 -4 -63 -8 -74 -19 -50 -162 189 -231 389 -69 199 -108
390 -145 706 -32 282 -50 358 -141 600 -119 317 -155 485 -155 724 -1 214 47
365 152 480 63 68 123 104 209 127 77 20 113 21 199 7z"/>
<path d="M4760 2338 c-5 -67 -3 -1018 3 -1019 39 -2 137 0 144 4 4 3 7 233 5
511 -2 506 -2 506 -77 506 -41 0 -75 -1 -75 -2z"/>
<path d="M9150 2338 c0 -2 0 -232 0 -513 -1 -346 3 -510 10 -509 5 1 40 2 78
2 67 2 67 2 65 509 -3 508 -3 508 -78 511 -41 2 -75 2 -75 0z"/>
<path d="M3552 2284 c-144 -38 -222 -131 -222 -263 1 -85 23 -134 89 -193 50
-45 72 -56 256 -123 68 -25 105 -63 105 -110 0 -141 -185 -184 -378 -89 -41
20 -75 34 -76 32 -1 -1 0 -40 2 -85 4 -81 4 -81 62 -106 247 -108 518 -15 560
190 15 70 1 151 -35 204 -45 64 -97 94 -289 164 -99 36 -139 106 -98 171 51
81 217 86 332 10 22 -14 41 -22 43 -18 2 4 2 42 -1 85 -4 78 -4 78 -43 97 -93
48 -209 61 -307 34z"/>
<path d="M5750 1807 c0 -266 2 -486 4 -488 2 -2 98 -1 213 2 182 5 215 8 264
27 132 52 221 146 261 276 31 98 30 272 -1 364 -39 113 -104 193 -200 245 -79
43 -164 57 -363 57 -178 0 -178 0 -178 -483z m417 308 c96 -28 153 -115 168
-256 9 -85 -8 -196 -40 -260 -48 -94 -137 -133 -291 -127 -79 3 -79 3 -82 318
-1 173 0 320 3 327 7 19 178 17 242 -2z"/>
<path d="M8054 2185 c-2 -5 -5 -50 -6 -100 -3 -90 -3 -90 -55 -93 -53 -3 -53
-3 -53 -73 0 -69 0 -69 55 -69 55 0 55 0 55 -186 0 -212 7 -250 60 -305 55
-58 154 -74 243 -40 24 9 27 16 27 53 0 24 3 54 7 67 6 22 4 23 -18 17 -86
-28 -131 -12 -149 51 -7 23 -10 99 -8 188 3 150 3 150 87 155 85 5 85 5 84 70
-1 65 -1 65 -84 70 -84 5 -84 5 -89 104 -5 98 -5 98 -79 100 -41 0 -75 -3 -77
-9z"/>
<path d="M5279 2000 c-95 -16 -179 -83 -220 -175 -34 -75 -39 -229 -9 -308 33
-88 76 -137 154 -177 64 -33 75 -35 160 -35 85 1 164 20 212 53 13 8 26 142
13 142 -4 0 -24 -11 -43 -24 -77 -52 -218 -54 -289 -4 -27 20 -66 87 -67 116
0 9 49 12 214 12 118 0 217 3 219 8 2 4 1 48 -3 97 -5 67 -14 103 -33 140 -59
116 -178 176 -308 155z m129 -150 c18 -11 40 -36 48 -55 27 -66 29 -65 -127
-65 -141 0 -141 0 -134 28 23 95 131 142 213 92z"/>
<path d="M4215 1976 c-113 -52 -167 -145 -173 -298 -5 -117 12 -181 67 -254
49 -65 143 -114 232 -121 70 -6 171 15 224 45 27 16 30 24 35 81 5 68 -1 82
-28 58 -33 -30 -106 -52 -172 -52 -103 0 -174 50 -195 138 -7 27 -7 27 210 27
217 0 217 0 213 93 -6 116 -32 181 -98 240 -57 51 -103 67 -196 67 -51 0 -82
-6 -119 -24z m188 -120 c48 -20 97 -108 69 -125 -5 -3 -69 -5 -142 -3 -132 3
-132 3 -125 30 22 90 112 134 198 98z"/>
<path d="M6789 1986 c-80 -28 -148 -104 -175 -194 -18 -60 -18 -206 1 -268 58
-193 287 -277 497 -183 46 22 46 22 50 86 2 36 0 67 -4 69 -4 3 -20 -4 -35
-15 -41 -30 -139 -53 -194 -46 -63 9 -120 43 -146 90 -44 77 -50 75 192 75
215 0 215 0 215 69 0 143 -59 254 -162 305 -42 21 -66 26 -127 26 -42 -1 -92
-7 -112 -14z m175 -131 c37 -18 66 -61 66 -99 0 -26 0 -26 -136 -26 -136 0
-136 0 -129 28 22 91 116 136 199 97z"/>
<path d="M7367 1992 c-67 -3 -67 -3 -65 -339 3 -335 3 -335 78 -335 75 0 75 0
80 218 6 252 11 272 83 305 51 23 70 23 112 4 55 -27 59 -47 65 -299 5 -228 5
-228 80 -228 75 0 75 0 75 258 0 256 0 260 -25 308 -14 28 -42 64 -63 80 -33
27 -48 31 -111 34 -62 3 -80 0 -122 -21 -27 -14 -58 -34 -68 -46 -29 -32 -39
-26 -33 18 6 47 5 47 -86 43z"/>
<path d="M8574 1979 c-62 -21 -62 -21 -66 -98 -3 -42 -3 -78 -1 -80 1 -2 24 8
51 22 104 57 203 57 260 1 24 -24 32 -41 32 -68 0 -36 0 -36 -62 -36 -219 0
-329 -73 -331 -219 0 -43 6 -68 24 -100 62 -111 234 -133 338 -45 21 19 42 34
44 34 3 0 7 -16 9 -35 2 -20 6 -35 11 -35 4 0 34 0 68 0 60 0 60 0 57 253 -3
238 -4 254 -25 293 -28 53 -91 107 -142 122 -62 19 -197 14 -267 -9z m260
-375 c10 -4 16 -18 16 -41 0 -76 -59 -133 -138 -133 -35 0 -49 6 -73 29 -17
17 -29 40 -29 55 0 35 39 76 80 86 43 10 123 12 144 4z"/>
</g>
</svg>
